# AST/ASF file generated using VICON BodyLanguage
# -----------------------------------------------
:version 1.10
:name VICON
:units
  mass 1.0
  length 0.45
  angle deg
:documentation
   .ast/.asf automatically generated from VICON data using
   VICON BodyBuilder and BodyLanguage model FoxedUp or BRILLIANT.MOD
:root
   order TX TY TZ RX RY RZ
   axis XYZ
   position 0 0 0  
   orientation 0 0 0 
:bonedata
  begin
     id 1 
     name lhipjoint
     direction 0.70531 -0.63749 0.310071 
     length 2.59589 
     axis 0 0 0  XYZ
  end
  begin
     id 2 
     name lfemur
     direction 0.34202 -0.939693 0  
     length 6.19797  
     axis 0 0 20  XYZ
    dof rx ry rz
    limits (-160.0 20.0)
           (-70.0 70.0)
           (-60.0 70.0)
  end
  begin
     id 3 
     name ltibia
     direction 0.34202 -0.939693 0   
     length 7.80054   
     axis 0 0 20   XYZ
    dof rx
    limits (-10.0 170.0)
  end
  begin
     id 4 
     name lfoot
     direction 0.0828572 -0.227648 0.970212   
     length 1.88124   
     axis -90 7.62852e-016 20   XYZ
    dof rx rz
    limits (-45.0 90.0)
           (-70.0 20.0)
  end
  begin
     id 5 
     name ltoes
     direction 1.53544e-011 -4.219e-011 1   
     length 0.948015   
     axis -90 7.62852e-016 20   XYZ
    dof rx
    limits (-90.0 20.0)
  end
  begin
     id 6 
     name rhipjoint
     direction -0.730062 -0.614543 0.29891   
     length 2.69282  
     axis 0 0 0  XYZ 
  end
  begin
     id 7 
     name rfemur
     direction -0.34202 -0.939693 0   
     length 5.86298   
     axis 0 0 -20   XYZ
    dof rx ry rz
    limits (-160.0 20.0)
           (-70.0 70.0)
           (-70.0 60.0)
  end
  begin
     id 8 
     name rtibia
     direction -0.34202 -0.939693 0   
     length 7.72374   
     axis 0 0 -20   XYZ
    dof rx
    limits (-10.0 170.0)
 end
 begin
     id 9 
     name rfoot
     direction -0.0967421 -0.265797 0.959163   
     length 2.02368  
     axis -90 -7.62852e-016 -20   XYZ
    dof rx rz
    limits (-45.0 90.0)
           (-20.0 70.0)
  end
  begin
     id 10 
     name rtoes
     direction -1.53524e-011 -4.21768e-011 1   
     length 1.01373   
     axis -90 -7.62852e-016 -20   XYZ
    dof rx
    limits (-90.0 20.0)
  end
  begin
     id 11 
     name lowerback
     direction 0.00561702 0.992801 -0.119643   
     length 2.02816   
     axis 0 0 0   XYZ
    dof rx ry rz
    limits (-20.0 45.0)
           (-30.0 30.0)
           (-30.0 30.0)
  end
  begin
     id 12 
     name upperback
     direction 0.00155544 0.995735 -0.0922509   
     length 2.02265   
     axis 0 0 0   XYZ
    dof rx ry rz
    limits (-20.0 45.0)
           (-30.0 30.0)
           (-30.0 30.0)
  end
  begin
     id 13 
     name thorax
     direction -0.000937535 0.999317 -0.0369292   
     length 2.04823   
     axis 0 0 0   XYZ
    dof rx ry rz
    limits (-20.0 45.0)
           (-30.0 30.0)
           (-30.0 30.0)
  end
  begin
     id 14 
     name lowerneck
     direction -0.0813151 0.981659 0.172436   
     length 1.8875   
     axis 0 0 0   XYZ
    dof rx ry rz
    limits (-20.0 45.0)
           (-30.0 30.0)
           (-30.0 30.0)
  end
  begin
     id 15 
     name upperneck
     direction 0.119359 0.955672 -0.269157   
     length 1.92801   
     axis 0 0 0   XYZ
    dof rx ry rz
    limits (-20.0 45.0)
           (-30.0 30.0)
           (-30.0 30.0)
  end
  begin
     id 16
     name head
     direction 0.0421007 0.992672 -0.113268  
     length 1.95809  
     axis 0 0 0   XYZ
    dof rx ry rz
    limits (-20.0 45.0)
           (-30.0 30.0)
           (-30.0 30.0)
  end
  begin
     id 17 
     name lclavicle
     direction 0.944093 0.32865 -0.0260136  
     length 3.84992  
     axis 0 0 0   XYZ
    dof ry rz
    limits (-20.0 10.0)
           (0.0 20.0)
  end
  begin
     id 18 
     name lhumerus
     direction 1 -4.48979e-011 -1.27712e-029   
     length 5.53593   
     axis 180 -30 -90   XYZ
    dof rx ry rz
    limits (-60.0 90.0)
           (-90.0 90.0)
           (-90.0 90.0)
  end
  begin
     id 19
     name lradius
     direction 1 -4.48966e-011 1.00051e-028   
     length 3.13345   
     axis 180 -30 -90   XYZ
    dof rx
    limits (-10.0 170.0)
  end
  begin
     id 20
     name lwrist
     direction 1 -4.4896e-011 2.56952e-028   
     length 1.56673   
     axis -5.12785e-016 90 90   XYZ
    dof ry
    limits (-180.0 0.0)
 end
  begin
     id 21 
     name lhand
     direction 1 -4.48934e-011 5.13905e-028   
     length 0.713374   
     axis -3.27915e-016 90 90   XYZ
    dof rx rz
    limits (-90.0 90.0)
           (-45.0 45.0)
  end
  begin
     id 22 
     name lfingers
     direction 1 -4.48973e-011 1.02781e-027   
     length 0.575141   
     axis -6.5583e-016 90 90   XYZ
    dof rx
    limits (0.0 90.0)
  end
  begin
     id 23
     name lthumb
     direction 0.707107 -6.34883e-011 0.707107   
     length 0.82579   
     axis -90 45 2.85299e-015   XYZ
    dof rx rz
    limits (-45.0 45.0)
           (-45.0 45.0)
  end
  begin
     id 24 
     name rclavicle
     direction -0.936895 0.34884 0.0232243   
     length 3.53304  
     axis 0 0 0   XYZ 
    dof ry rz
    limits (-10.0 20.0)
           (-20.0 0.0)
  end
  begin
     id 25 
     name rhumerus
     direction -1 -4.48965e-011 1.05514e-027  
     length 5.4685   
     axis 180 30 90   XYZ
    dof rx ry rz
    limits (-90.0 60.0)
           (-90.0 90.0)
           (-90.0 90.0)
  end
  begin
     id 26 
     name rradius
     direction -1 -4.48964e-011 -1.1079e-027   
     length 3.22411   
     axis 180 30 90   XYZ
    dof rx
    limits (-10.0 170.0)
  end
  begin
     id 27 
     name rwrist
     direction -1 -4.48973e-011 2.56952e-028   
     length 1.61206   
     axis -5.12785e-016 -90 -90   XYZ
    dof ry
    limits (-180.0 0.0)
  end
  begin
     id 28
     name rhand
     direction -1 -4.48957e-011 5.13905e-028   
     length 0.74528   
     axis -3.27915e-016 -90 -90   XYZ
    dof rx rz
    limits (-90.0 90.0)
           (-45.0 45.0)
  end
  begin
     id 29
     name rfingers
     direction -1 -4.4901e-011 1.02781e-027   
     length 0.600864   
     axis -6.5583e-016 -90 -90   XYZ
    dof rx
    limits (0.0 90.0)
  end
  begin
     id 30
     name rthumb
     direction -0.707107 -6.34972e-011 0.707107   
     length 0.862724   
     axis -90 -45 -2.85299e-015   XYZ
    dof rx rz
    limits (-45.0 45.0)
           (-45.0 45.0)
  end
:hierarchy
  begin
    root lhipjoint rhipjoint lowerback
    lhipjoint lfemur
    lfemur ltibia
    ltibia lfoot
    lfoot ltoes
    rhipjoint rfemur
    rfemur rtibia
    rtibia rfoot
    rfoot rtoes
    lowerback upperback
    upperback thorax
    thorax lowerneck lclavicle rclavicle
    lowerneck upperneck
    upperneck head
    lclavicle lhumerus
    lhumerus lradius
    lradius lwrist
    lwrist lhand lthumb
    lhand lfingers
    rclavicle rhumerus
    rhumerus rradius
    rradius rwrist
    rwrist rhand rthumb
    rhand rfingers
  end

#!OML:ASF G:\Work\Work\Patient Classification 1\Liu\Session 1\Liu.ASF
:FULLY-SPECIFIED
:DEGREES
241
root 9.93308 16.5745 -4.00326 4.46753 3.97382 8.73941
lowerback -0.929585 -3.17364 -8.08712
upperback 0.94929 -4.08169 -0.879395
thorax 2.00756 -2.13582 3.48071
lowerneck -20.5795 -2.75865 -9.79367
upperneck 25.0901 -2.75617 7.42045
head 11.8929 -1.2228 3.9994
rclavicle -3.39922e-014 -2.0276e-014
rhumerus -46.5133 10.6918 -89.278
rradius 37.5386
rwrist -5.72003
rhand -16.3953 19.6833
rfingers 7.12502
rthumb 9.81876 -10.0678
lclavicle -3.39922e-014 -2.0276e-014
lhumerus -20.2225 -17.0908 86.1905
lradius 38.1034
lwrist 3.93972
lhand -15.1606 32.5228
lfingers 7.12502
lthumb 11.0099 62.2141
rfemur -36.1296 2.63168 10.8178
rtibia 28.5365
rfoot -10.2389 -8.61797
rtoes -25.0238
lfemur 15.8568 -0.0555757 -31.9306
ltibia 14.5494
lfoot -8.50972 -4.15312
ltoes -8.00004
242
root 9.90768 16.596 -3.77132 4.28889 4.15821 8.57081
lowerback -0.790653 -3.23411 -7.85545
upperback 0.92647 -4.18128 -0.851007
thorax 1.90259 -2.1787 3.38709
lowerneck -20.6209 -2.72601 -9.92638
upperneck 25.1413 -2.71057 7.58649
head 11.9205 -1.19399 4.09541
rclavicle -2.65874e-014 -5.08889e-014
rhumerus -46.8451 10.5566 -89.2973
rradius 37.5906
rwrist -5.68982
rhand -16.3818 19.7436
rfingers 7.12502
rthumb 9.83184 -10.0069
lclavicle -2.65874e-014 -5.08889e-014
lhumerus -20.4959 -16.7217 86.2492
lradius 38.0908
lwrist 3.97018
lhand -14.9557 32.7646
lfingers 7.12502
lthumb 11.2075 62.4452
rfemur -35.8575 3.01689 10.861
rtibia 29.2082
rfoot -8.4224 -8.22273
rtoes -24.2044
lfemur 15.72 0.492521 -31.2971
ltibia 16.2587
lfoot -6.8668 -3.43268
ltoes -9.26152
243
root 9.88697 16.5934 -3.53049 3.98217 4.29185 8.13406
lowerback -0.766671 -3.2655 -7.26907
upperback 0.96601 -4.23366 -0.792552
thorax 1.89642 -2.19914 3.12163
lowerneck -20.6092 -2.69842 -9.85848
upperneck 25.271 -2.66782 7.472
head 11.9613 -1.18515 4.05084
rclavicle -1.38652e-014 -5.1684e-015
rhumerus -47.1639 10.5529 -89.4175
rradius 37.4985
rwrist -5.70786
rhand -16.4617 19.7824
rfingers 7.12502
rthumb 9.75469 -9.9717
lclavicle -1.38652e-014 -5.1684e-015
lhumerus -20.7843 -16.5178 86.3541
lradius 37.8579
lwrist 4.11996
lhand -14.9409 32.9524
lfingers 7.12502
lthumb 11.2218 62.6323
rfemur -35.1938 2.73061 11.5658
rtibia 29.7336
rfoot -6.35593 -7.65075
rtoes -22.0646
lfemur 15.3202 1.10424 -30.3918
ltibia 18.7513
lfoot -5.30859 -2.84229
ltoes -7.52551
244
root 9.86142 16.5865 -3.29372 3.59446 4.40446 7.24037
lowerback -0.717523 -3.29787 -6.35202
upperback 1.00927 -4.29699 -0.552052
thorax 1.86901 -2.22193 2.86174
lowerneck -20.3896 -2.61663 -9.78555
upperneck 25.3022 -2.56029 7.33692
head 11.9153 -1.15134 4.00346
rclavicle -9.44724e-014 -2.54444e-014
rhumerus -47.4584 10.5663 -89.4782
rradius 37.2428
rwrist -5.72765
rhand -16.9378 20.2688
rfingers 7.12502
rthumb 9.2954 -9.50626
lclavicle -9.44724e-014 -2.54444e-014
lhumerus -21.2387 -16.3927 86.5682
lradius 37.5895
lwrist 4.36794
lhand -15.0521 32.8409
lfingers 7.12502
lthumb 11.1145 62.5266
rfemur -34.2963 2.23848 12.9988
rtibia 30.2612
rfoot -3.99743 -7.32811
rtoes -19.0771
lfemur 14.6578 1.85053 -28.8961
ltibia 21.8597
lfoot -3.63116 -2.10459
ltoes -3.06894
245
root 9.83645 16.5835 -3.0644 3.17984 4.57838 6.20253
lowerback -0.492121 -3.37524 -5.29776
upperback 1.01418 -4.43436 -0.267582
thorax 1.70102 -2.27626 2.58061
lowerneck -20.1272 -2.48966 -9.66367
upperneck 25.31 -2.41551 7.22675
head 11.8474 -1.093 3.96218
rclavicle -1.48095e-014 -1.19271e-014
rhumerus -47.7252 10.5715 -89.5069
rradius 37.1101
rwrist -5.86978
rhand -16.7388 19.9404
rfingers 7.12502
rthumb 9.4874 -9.82602
lclavicle -1.48095e-014 -1.19271e-014
lhumerus -21.9738 -15.8928 86.7318
lradius 37.6336
lwrist 4.28315
lhand -15.1345 32.6029
lfingers 7.12502
lthumb 11.035 62.2928
rfemur -33.3947 1.84174 14.579
rtibia 30.861
rfoot -3.55176 -6.64251
rtoes -20.0115
lfemur 13.6402 2.69929 -27.1398
ltibia 25.5557
lfoot -1.84925 -1.38728
ltoes -1.59658
246
root 9.80974 16.5869 -2.85006 2.9121 4.68588 5.0861
lowerback -0.148349 -3.4341 -4.1526
upperback 0.976663 -4.54809 0.031716
thorax 1.41237 -2.31626 2.27506
lowerneck -20.1163 -2.45091 -9.60389
upperneck 25.3288 -2.36165 7.15513
head 11.8451 -1.07281 3.93357
rclavicle -1.58531e-014 5.56597e-015
rhumerus -47.7278 10.6217 -89.5395
rradius 36.8088
rwrist -5.8197
rhand -16.1973 19.1532
rfingers 7.12502
rthumb 10.0098 -10.5888
lclavicle -1.58531e-014 5.56597e-015
lhumerus -22.665 -15.2404 86.8144
lradius 37.8054
lwrist 4.11797
lhand -15.25 32.4448
lfingers 7.12502
lthumb 10.9237 62.1406
rfemur -32.8227 1.76311 16.1516
rtibia 31.5403
rfoot -3.35526 -6.12888
rtoes -20.5641
lfemur 12.0905 3.6297 -25.2833
ltibia 29.5392
lfoot 0.110701 -0.555674
ltoes -3.15705
247
root 9.77799 16.5883 -2.64646 2.82457 4.73618 4.03094
lowerback 0.105834 -3.44312 -3.09794
upperback 0.848927 -4.58175 0.319777
thorax 1.08067 -2.31791 2.00795
lowerneck -19.9866 -2.50075 -9.87355
upperneck 25.3059 -2.4133 7.35591
head 11.8223 -1.09844 4.04699
rclavicle -1.53064e-014 -1.98785e-015
rhumerus -47.8146 10.6095 -89.5669
rradius 36.5358
rwrist -5.43854
rhand -16.145 19.0111
rfingers 7.12502
rthumb 10.0602 -10.7285
lclavicle -1.53064e-014 -1.98785e-015
lhumerus -23.2898 -14.8649 86.9736
lradius 37.7923
lwrist 4.11844
lhand -15.2929 32.3204
lfingers 7.12502
lthumb 10.8822 62.0184
rfemur -32.4891 1.81744 17.6292
rtibia 32.2309
rfoot -3.14639 -5.55147
rtoes -21.291
lfemur 10.1848 4.41608 -23.5807
ltibia 33.542
lfoot 2.12073 0.654022
ltoes -5.95699
248
root 9.75455 16.5673 -2.43631 2.70765 4.68416 3.35645
lowerback 0.174329 -3.35839 -2.27538
upperback 0.767343 -4.47498 0.414399
thorax 0.896179 -2.25536 1.65932
lowerneck -19.9071 -2.5115 -10.0963
upperneck 25.4477 -2.45877 7.66597
head 11.8728 -1.10439 4.2017
rclavicle 1.58779e-014 -7.95139e-016
rhumerus -48.0807 10.3195 -89.5538
rradius 36.5694
rwrist -5.24727
rhand -15.969 19.1785
rfingers 7.12502
rthumb 10.23 -10.5528
lclavicle 1.58779e-014 -7.95139e-016
lhumerus -23.8236 -14.8512 87.1718
lradius 37.5236
lwrist 3.99865
lhand -15.4133 31.8576
lfingers 7.12502
lthumb 10.7662 61.5617
rfemur -32.0628 1.65838 18.6987
rtibia 32.9452
rfoot -3.42902 -4.7833
rtoes -19.0749
lfemur 8.48372 5.05121 -22.442
ltibia 37.5565
lfoot 3.61045 1.84395
ltoes -6.57973
249
root 9.73529 16.5603 -2.22252 2.57296 4.61891 2.81472
lowerback 0.185093 -3.29821 -1.59016
upperback 0.852877 -4.39654 0.478582
thorax 0.927275 -2.21229 1.34416
lowerneck -20.3815 -2.49183 -9.97789
upperneck 25.6993 -2.43505 7.67857
head 12.0611 -1.07654 4.20248
rclavicle 1.96051e-014 -1.59028e-014
rhumerus -47.8367 10.2329 -89.5715
rradius 36.1844
rwrist -5.43376
rhand -15.5828 19.3761
rfingers 7.12502
rthumb 10.6026 -10.3364
lclavicle 1.96051e-014 -1.59028e-014
lhumerus -24.0968 -14.7625 87.2902
lradius 37.1764
lwrist 3.86117
lhand -15.7105 31.3455
lfingers 7.12502
lthumb 10.4794 61.0643
rfemur -31.4471 1.41719 19.6023
rtibia 33.5449
rfoot -4.36978 -4.15459
rtoes -15.9346
lfemur 6.91232 5.52347 -21.5488
ltibia 41.4973
lfoot 4.67994 3.1308
ltoes -4.40008
250
root 9.71241 16.5588 -2.00927 2.43671 4.58807 2.16188
lowerback 0.220445 -3.32806 -1.00444
upperback 0.928892 -4.43975 0.693431
thorax 0.959312 -2.23097 1.23794
lowerneck -20.5965 -2.49922 -9.73902
upperneck 25.6707 -2.40347 7.33858
head 12.0825 -1.0791 4.03522
rclavicle -2.65129e-014 -6.75868e-015
rhumerus -47.5811 10.6779 -89.6876
rradius 35.6698
rwrist -5.48332
rhand -15.7208 20.0229
rfingers 7.12502
rthumb 10.4695 -9.69645
lclavicle -2.65129e-014 -6.75868e-015
lhumerus -24.5117 -14.2404 87.451
lradius 37.0364
lwrist 3.87161
lhand -15.6859 31.754
lfingers 7.12502
lthumb 10.5032 61.4716
rfemur -30.7418 1.22397 20.6195
rtibia 34.0006
rfoot -5.34754 -3.66933
rtoes -15.6226
lfemur 5.19452 5.83899 -20.6023
ltibia 45.3831
lfoot 5.83394 4.71189
ltoes -6.19682
251
root 9.68744 16.5724 -1.80061 2.32293 4.46704 1.47721
lowerback 0.292996 -3.29909 -0.425787
upperback 0.937358 -4.40421 0.916069
thorax 0.900162 -2.20936 1.14939
lowerneck -20.4132 -2.48925 -9.58674
upperneck 25.4312 -2.38483 7.11596
head 11.9459 -1.08375 3.91695
rclavicle -2.36305e-014 1.19271e-015
rhumerus -47.624 11.0017 -89.7423
rradius 35.6236
rwrist -5.30056
rhand -15.8817 20.7168
rfingers 7.12502
rthumb 10.3143 -9.01029
lclavicle -2.36305e-014 1.19271e-015
lhumerus -24.9988 -13.7811 87.6364
lradius 36.9942
lwrist 3.92864
lhand -15.291 32.529
lfingers 7.12502
lthumb 10.884 62.2269
rfemur -29.9825 1.15788 21.6474
rtibia 34.1966
rfoot -5.97224 -3.2567
rtoes -15.9738
lfemur 3.27827 6.19017 -19.6844
ltibia 49.2061
lfoot 6.87706 6.58633
ltoes -9.08107
252
root 9.66107 16.597 -1.60346 2.24795 4.50374 0.8427
lowerback 0.30408 -3.24018 0.1846
upperback 1.03252 -4.3285 1.06052
thorax 0.955612 -2.1674 0.95658
lowerneck -20.5082 -2.60648 -9.63381
upperneck 25.3137 -2.56281 7.25446
head 11.94 -1.14683 3.94633
rclavicle 1.51573e-014 -2.50469e-014
rhumerus -47.387 10.9258 -89.633
rradius 35.6049
rwrist -5.07473
rhand -15.6234 20.9687
rfingers 7.12502
rthumb 10.5634 -8.74579
lclavicle 1.51573e-014 -2.50469e-014
lhumerus -25.1501 -13.7416 87.7707
lradius 36.8082
lwrist 4.03094
lhand -14.9407 32.9395
lfingers 7.12502
lthumb 11.2219 62.6194
rfemur -29.1402 0.973391 22.6026
rtibia 34.1841
rfoot -6.44802 -2.99685
rtoes -15.9856
lfemur 1.26759 6.34379 -18.8829
ltibia 52.949
lfoot 7.4614 8.74374
ltoes -7.36363
253
root 9.64212 16.6029 -1.40798 2.17071 4.6139 0.259825
lowerback 0.183084 -3.16456 0.844753
upperback 1.17222 -4.23367 1.14591
thorax 1.12376 -2.11401 0.666411
lowerneck -20.6256 -2.90434 -9.87327
upperneck 25.2996 -2.9845 7.55973
head 12.0115 -1.31755 4.03662
rclavicle -9.29318e-015 0
rhumerus -47.1293 10.8506 -89.596
rradius 35.6157
rwrist -5.07134
rhand -15.6946 21.0782
rfingers 7.12502
rthumb 10.4947 -8.63981
lclavicle -9.29318e-015 0
lhumerus -25.3676 -13.8281 87.9398
lradius 36.7091
lwrist 4.21523
lhand -14.8075 33.4514
lfingers 7.12502
lthumb 11.3505 63.1242
rfemur -28.1457 0.474259 23.498
rtibia 33.9978
rfoot -6.99235 -2.59374
rtoes -15.9053
lfemur -0.681639 6.28352 -18.2585
ltibia 56.6009
lfoot 7.48442 11.2697
ltoes -2.81299
254
root 9.62597 16.6117 -1.21247 2.12154 4.67996 -0.227654
lowerback 0.20726 -3.11732 1.36414
upperback 1.21783 -4.17391 1.24964
thorax 1.12752 -2.07925 0.485082
lowerneck -20.193 -3.07269 -10.288
upperneck 25.1386 -3.24423 7.97533
head 11.9062 -1.42644 4.21871
rclavicle 3.0091e-014 -1.31198e-014
rhumerus -47.0546 11.0456 -89.6566
rradius 35.6913
rwrist -5.26799
rhand -15.9093 21.187
rfingers 7.12502
rthumb 10.2876 -8.54137
lclavicle 3.0091e-014 -1.31198e-014
lhumerus -25.8781 -13.6742 88.2079
lradius 36.427
lwrist 3.59633
lhand -15.3546 32.2331
lfingers 7.12502
lthumb 10.8228 61.9342
rfemur -27.091 0.050658 24.2491
rtibia 33.6298
rfoot -7.39031 -2.19142
rtoes -16.8928
lfemur -2.70711 6.1982 -17.8284
ltibia 60.0762
lfoot 6.61819 13.5439
ltoes -1.02837
